<svg xmlns="http://www.w3.org/2000/svg" width="57" height="61" viewBox="0 0 57 61">
    <g fill="#FFF" fill-rule="evenodd">
        <path d="M30.809 46H44.19c.445 0 .809-.396.809-.88V31.88c0-.484-.364-.88-.809-.88H30.81c-.445 0-.809.396-.809.88v13.24c0 .484.364.88.809.88zm.808-13.24h11.766v11.48H31.617V32.76zM14 45h2v-2h-2z"/>
        <path d="M36.696 34L33 37.696 34.304 39 38 35.304zM35 40.737L35.973 42 41 35.263 40.027 34zM42 51h2v-2h-2z"/>
        <path d="M56.989 19.515a.894.894 0 0 0-.397-.592l-7.095-4.822V2.775c0-.5-.396-.91-.881-.91h-6.257c-.485 0-.882.41-.882.91v5.868L29.007.136c-.309-.181-.705-.181-.97 0L.408 18.923c-.176.137-.352.364-.397.592-.044.272.045.5.177.727l3.128 4.504a.95.95 0 0 0 1.234.273l1.278-.91v30.204h-.22c-.485 0-.881.41-.881.91v4.867c0 .5.396.91.88.91h46.006c.484 0 .88-.41.88-.91v-4.867c0-.5-.396-.91-.88-.91h-.441V24.11l1.322.91a.83.83 0 0 0 .44.136.859.859 0 0 0 .75-.41l3.128-4.503c.132-.227.22-.455.177-.727zM43.24 7.005h.661v-1.82h-.661v-1.5h4.495v1.5h-1.851v1.82h1.85v5.868L43.24 9.826v-2.82zm7.491 52.175H6.49v-3.047h44.242v3.047zm-26.13-4.867H12.834V31.57H24.6v22.744zm24.808-4.776h-3.701v1.82h3.701v2.956H26.363V30.66c0-.5-.397-.91-.882-.91H11.953c-.484 0-.881.41-.881.91v23.654H7.591V22.926l4.847-3.23h6.698v-1.819H15.17l13.352-8.916 20.887 13.965v26.61zm3.305-26.52L28.963 7.097a.831.831 0 0 0-.441-.137.868.868 0 0 0-.485.136L4.286 23.017l-2.16-3.093L28.523 2l26.351 17.923-2.159 3.093z"/>
        <path d="M22 20h2v-2h-2z"/>
    </g>
</svg>
